<?xml version="1.0" standalone="no"?>
<!DOCTYPE svg PUBLIC "-//W3C//DTD SVG 20010904//EN"
 "http://www.w3.org/TR/2001/REC-SVG-20010904/DTD/svg10.dtd">
<svg version="1.0" xmlns="http://www.w3.org/2000/svg"
 width="631.000000pt" height="631.000000pt" viewBox="0 0 631.000000 631.000000"
 preserveAspectRatio="xMidYMid meet">
<metadata>
Created by potrace 1.14, written by Peter Selinger 2001-2017
</metadata>
<g transform="translate(0.000000,631.000000) scale(0.100000,-0.100000)"
fill="#000000" stroke="none">
<path d="M3434 3778 c3 -579 8 -1078 12 -1108 12 -112 75 -258 147 -340 120
-136 266 -192 506 -191 194 1 250 13 367 77 181 99 276 280 300 574 7 83 12
1931 6 2000 l-4 35 -294 2 -294 2 0 -852 c-1 -972 -4 -1208 -20 -1236 -28 -54
-93 -51 -116 6 -20 47 -24 253 -24 1286 l0 797 -295 0 -296 0 5 -1052z"/>
<path d="M4920 3491 l0 -1341 300 0 300 0 0 510 0 510 53 1 c28 0 68 2 87 4
19 2 68 6 108 10 241 21 388 154 451 411 54 218 56 560 5 759 -9 33 -18 68
-19 78 -2 10 -20 52 -40 93 -48 100 -136 189 -228 233 -113 54 -162 59 -609
66 l-408 7 0 -1341z m678 753 c49 -34 56 -66 56 -249 0 -192 -7 -220 -68 -249
-69 -33 -66 -45 -66 249 l0 265 28 0 c15 0 38 -7 50 -16z"/>
<path d="M2688 4472 c-10 -2 -19 -11 -20 -20 0 -9 -2 -26 -3 -37 -1 -11 -3
-93 -4 -182 l-1 -163 -60 0 -60 0 0 -215 0 -215 60 0 60 0 0 -397 c1 -797 9
-907 70 -992 71 -97 232 -127 488 -91 70 10 85 16 91 34 5 11 9 100 10 197 l2
177 -63 -2 -63 -1 -3 538 -2 537 65 0 65 0 0 215 0 215 -65 0 -65 0 -1 83 c-3
214 -6 308 -13 314 -7 7 -457 12 -488 5z"/>
<path d="M435 4144 c-217 -45 -383 -206 -414 -401 -10 -66 -6 -192 9 -271 14
-76 63 -162 129 -228 31 -31 122 -109 203 -174 81 -65 144 -120 141 -124 -4
-3 -119 -6 -256 -6 l-249 0 6 -147 c4 -80 9 -161 11 -180 3 -18 7 -48 10 -65
13 -95 63 -185 144 -261 111 -102 229 -140 441 -139 263 0 438 89 534 272 65
123 87 299 59 462 -32 186 -134 322 -372 497 -134 98 -150 112 -131 110 8 -1
127 -1 264 0 l248 1 -6 99 c-13 209 -55 327 -148 421 -61 61 -167 114 -270
135 -95 19 -260 18 -353 -1z m190 -428 c15 -11 20 -31 24 -105 4 -50 3 -91 -1
-91 -14 0 -69 54 -83 81 -20 37 -19 94 1 113 19 20 35 20 59 2z m-25 -848 c44
-55 59 -99 59 -178 0 -71 -11 -95 -50 -105 -18 -4 -30 0 -44 15 -18 19 -20 40
-23 166 -4 164 1 173 58 102z"/>
<path d="M1680 4136 c-217 -63 -353 -212 -386 -426 -9 -58 -11 -699 -3 -940 6
-151 11 -198 29 -255 81 -257 277 -380 590 -370 133 4 197 18 287 62 95 46
163 114 207 206 47 98 64 191 72 395 l6 172 -265 0 -265 0 -2 -147 c-1 -82 -5
-168 -10 -192 -13 -71 -64 -94 -97 -44 -16 23 -18 57 -21 250 l-4 223 332 0
333 0 -5 343 c-5 318 -7 346 -28 407 -12 36 -33 84 -46 107 -61 106 -189 188
-338 218 -115 23 -290 19 -386 -9z m247 -423 c14 -22 19 -56 23 -170 3 -79 4
-148 2 -153 -2 -6 -33 -10 -68 -10 l-64 0 0 154 c0 140 2 156 21 180 27 34 63
34 86 -1z"/>
<path d="M5090 1863 c-166 -83 -126 -338 58 -366 46 -7 128 15 158 44 106 98
78 278 -51 327 -59 23 -112 21 -165 -5z m184 -104 c22 -8 41 -20 44 -26 5 -16
-36 -17 -75 -2 -23 9 -99 17 -175 19 -10 0 -18 4 -18 9 0 5 8 12 18 15 30 9
166 -1 206 -15z m-15 -74 c17 -8 31 -20 31 -25 0 -13 3 -13 -58 9 -33 11 -73
17 -104 15 -56 -3 -72 1 -62 18 10 15 156 2 193 -17z m-11 -61 c34 -22 25 -24
-36 -9 -29 8 -69 12 -89 10 -44 -4 -65 5 -37 17 28 12 134 0 162 -18z"/>
<path d="M4423 1820 c-12 -5 -27 -19 -34 -32 -6 -13 -20 -32 -31 -44 -17 -19
-17 -22 -3 -34 11 -9 15 -33 15 -96 0 -73 2 -84 18 -84 40 1 47 19 51 125 1
21 8 33 24 40 31 14 28 39 -5 43 -37 4 -35 23 3 46 48 29 17 59 -38 36z"/>
<path d="M5994 1787 c-8 -22 11 -46 26 -31 7 7 5 17 -4 30 -14 18 -15 18 -22
1z"/>
<path d="M5464 1765 c-32 -32 -20 -64 34 -90 23 -11 42 -23 42 -27 0 -8 -28
-12 -68 -8 -37 3 -24 -32 15 -42 24 -6 41 -4 63 7 l30 16 0 -31 c0 -23 4 -30
20 -30 14 0 20 7 20 21 0 18 5 20 35 16 46 -6 70 20 69 75 -2 49 -11 59 -61
62 -53 3 -83 -9 -83 -33 0 -19 -2 -19 -37 -5 -21 9 -45 22 -53 30 -16 16 -10
18 43 14 34 -2 37 25 5 36 -42 14 -50 13 -74 -11z m220 -81 c14 -37 -5 -61
-39 -48 -15 6 -21 45 -8 57 12 13 41 7 47 -9z"/>
<path d="M6072 1775 c-23 -36 -31 -59 -23 -69 4 -6 12 -32 15 -58 9 -62 24
-61 32 2 4 28 11 50 16 50 9 0 47 -76 48 -96 0 -6 -10 -16 -22 -21 -22 -10
-22 -11 -4 -19 29 -11 48 6 82 76 24 49 37 65 53 65 31 0 30 17 -1 26 -31 8
-49 -3 -71 -46 l-15 -29 -16 38 c-9 21 -25 40 -36 43 -16 4 -18 9 -9 19 6 7 8
18 5 23 -8 12 -45 10 -54 -4z"/>
<path d="M5911 1766 c-14 -17 -17 -55 -7 -113 10 -55 42 -77 67 -47 9 11 8 15
-5 20 -22 8 -21 63 1 79 16 12 15 15 -13 44 -27 27 -33 30 -43 17z"/>
<path d="M4816 1735 c-14 -11 -24 -11 -43 -2 -36 16 -43 -2 -43 -110 l0 -93
30 0 c30 0 30 0 30 58 0 64 17 99 52 104 29 4 35 33 11 46 -13 7 -24 6 -37 -3z"/>
<path d="M4526 1709 c-40 -48 -38 -111 5 -151 39 -37 96 -38 136 -4 25 21 28
31 28 81 0 50 -3 60 -28 81 -20 17 -40 24 -72 24 -36 0 -47 -5 -69 -31z m102
-21 c16 -16 16 -90 0 -106 -29 -29 -78 5 -78 53 0 48 49 82 78 53z"/>
<path d="M5783 1728 c-31 -15 -46 -59 -31 -91 16 -33 52 -48 85 -36 62 21 66
101 6 128 -28 13 -31 13 -60 -1z m55 -40 c13 -17 -3 -58 -21 -58 -22 0 -39 27
-32 50 7 22 37 27 53 8z"/>
<path d="M5995 1730 c-7 -11 2 -117 11 -132 18 -29 34 85 18 126 -7 18 -20 21
-29 6z"/>
</g>
</svg>
